Coordinates
version=1
nRows=27
nColumns=12
inDegrees=yes

Units are S.I. units (second, meters, Newtons, ...)
Angles are in degrees

endheader
time	SC_y	SC_z	SC_x	AC_y	AC_z	AC_x	GH_y	GH_z	GH_yy	EL_x	PS_y
       0.0              -43.32         -2.695          76.36          35.12         -4.453         -9.625         -94.66          59.38          127.7          60.65          107.0
   0.01593              -43.32         -2.694          76.36          35.12         -4.455         -9.625         -94.64          59.38          127.7          60.66          107.0
   0.03186              -43.32         -2.694          76.35          35.13         -4.457         -9.624         -94.61          59.38          127.7          60.67          107.0
   0.04779              -43.32         -2.693          76.35          35.13          -4.46         -9.624         -94.59          59.38          127.7          60.68          107.0
   0.06372              -43.32         -2.692          76.35          35.13         -4.463         -9.623         -94.56          59.38          127.6          60.69          107.0
   0.07965              -43.33         -2.691          76.35          35.13         -4.465         -9.622         -94.53          59.38          127.6          60.71          107.0
   0.09559              -43.33          -2.69          76.34          35.13         -4.468         -9.621          -94.5          59.38          127.6          60.72          107.0
    0.1115              -43.33         -2.689          76.34          35.13         -4.472         -9.621         -94.47          59.38          127.6          60.73          107.0
    0.1274              -43.34         -2.688          76.34          35.13         -4.475          -9.62         -94.43          59.38          127.6          60.75          107.0
    0.1434              -43.34         -2.687          76.33          35.14         -4.479         -9.619          -94.4          59.38          127.6          60.76          107.0
    0.1593              -43.34         -2.686          76.33          35.14         -4.483         -9.618         -94.35          59.38          127.5          60.78          107.0
    0.1752              -43.35         -2.684          76.33          35.14         -4.487         -9.617         -94.31          59.38          127.5           60.8          107.0
    0.1912              -43.35         -2.683          76.32          35.14         -4.492         -9.616         -94.26          59.38          127.5          60.82          107.0
    0.2071              -43.36         -2.681          76.32          35.15         -4.497         -9.615         -94.21          59.37          127.5          60.84          107.0
     0.223              -43.36          -2.68          76.31          35.15         -4.502         -9.613         -94.16          59.37          127.4          60.87          107.1
     0.239              -43.37         -2.678          76.31          35.15         -4.508         -9.612          -94.1          59.37          127.4          60.89          107.1
    0.2549              -43.38         -2.676           76.3          35.15         -4.515          -9.61         -94.03          59.37          127.4          60.92          107.1
    0.2708              -43.38         -2.673           76.3          35.16         -4.521         -9.608         -93.96          59.37          127.3          60.95          107.1
    0.2868              -43.39         -2.671          76.29          35.16         -4.529         -9.607         -93.89          59.37          127.3          60.98          107.1
    0.3027               -43.4         -2.668          76.28          35.17         -4.537         -9.605          -93.8          59.37          127.3          61.02          107.1
    0.3186              -43.41         -2.665          76.27          35.17         -4.547         -9.602         -93.71          59.36          127.2          61.06          107.1
    0.3345              -43.42         -2.662          76.26          35.18         -4.557           -9.6         -93.61          59.36          127.2           61.1          107.2
    0.3505              -43.43         -2.659          76.25          35.18         -4.568         -9.597          -93.5          59.36          127.1          61.15          107.2
    0.3664              -43.44         -2.655          76.24          35.19          -4.58         -9.594         -93.37          59.36          127.0           61.2          107.2
    0.3823              -43.45         -2.651          76.23          35.19         -4.594         -9.591         -93.23          59.35          127.0          61.26          107.2
    0.3983              -43.47         -2.646          76.22           35.2         -4.609         -9.587         -93.08          59.35          126.9          61.32          107.2
    0.4142              -43.49          -2.64           76.2          35.21         -4.626         -9.583          -92.9          59.35          126.8           61.4          107.3
